<svg width="538" height="250" viewBox="0 0 538 250" fill="none" xmlns="http://www.w3.org/2000/svg">
<rect width="538" height="250" fill="#F0F3F3"/>
<path d="M210.766 101C210.766 104 210.766 107 210.766 110C210.766 114.2 211.366 117.8 212.566 121.4C213.766 123.8 215.566 126.2 218.566 127.4C217.366 128.6 216.166 129.8 216.166 131.6C216.166 132.8 217.366 133.4 218.566 133.4C217.366 134.6 216.166 135.8 216.166 137.6C216.166 139.4 217.366 140.6 218.566 141.8C216.166 144.2 212.566 146.6 208.966 147.8C205.366 149 201.766 149 199.366 147.8" stroke="#2A2A2A" stroke-width="0.72" stroke-linecap="round"/>
<path opacity="0.6" d="M210.766 101C208.966 99.8001 206.566 99.8001 204.766 101C202.966 103.4 201.766 107 201.766 111.8C201.766 119 202.966 128 204.166 135.8C204.766 141.8 204.166 146 201.766 149" stroke="#2A2A2A" stroke-width="0.72" stroke-linecap="round"/>
<path opacity="0.5" d="M214.966 134.6C212.566 133.4 210.166 133.4 207.766 134.6C206.566 135.8 205.966 138.2 206.566 140.6" stroke="#2A2A2A" stroke-width="0.6" stroke-linecap="round"/>
<path d="M271.641 110H276.266L287.141 136.562H287.516L298.391 110H303.016V142H299.391V117.688H299.078L289.078 142H285.578L275.578 117.688H275.266V142H271.641V110ZM312.41 142V118H316.098V142H312.41ZM314.285 114C313.567 114 312.947 113.755 312.426 113.266C311.916 112.776 311.66 112.188 311.66 111.5C311.66 110.813 311.916 110.224 312.426 109.734C312.947 109.245 313.567 109 314.285 109C315.004 109 315.619 109.245 316.129 109.734C316.65 110.224 316.91 110.813 316.91 111.5C316.91 112.188 316.65 112.776 316.129 113.266C315.619 113.755 315.004 114 314.285 114ZM328.665 110V142H324.977V110H328.665ZM347.294 142.5C345.127 142.5 343.226 141.984 341.591 140.953C339.966 139.922 338.695 138.479 337.778 136.625C336.872 134.771 336.419 132.604 336.419 130.125C336.419 127.625 336.872 125.443 337.778 123.578C338.695 121.714 339.966 120.266 341.591 119.234C343.226 118.203 345.127 117.688 347.294 117.688C349.46 117.688 351.356 118.203 352.981 119.234C354.617 120.266 355.887 121.714 356.794 123.578C357.71 125.443 358.169 127.625 358.169 130.125C358.169 132.604 357.71 134.771 356.794 136.625C355.887 138.479 354.617 139.922 352.981 140.953C351.356 141.984 349.46 142.5 347.294 142.5ZM347.294 139.188C348.94 139.188 350.294 138.766 351.356 137.922C352.419 137.078 353.205 135.969 353.716 134.594C354.226 133.219 354.481 131.729 354.481 130.125C354.481 128.521 354.226 127.026 353.716 125.641C353.205 124.255 352.419 123.135 351.356 122.281C350.294 121.427 348.94 121 347.294 121C345.648 121 344.294 121.427 343.231 122.281C342.169 123.135 341.382 124.255 340.872 125.641C340.361 127.026 340.106 128.521 340.106 130.125C340.106 131.729 340.361 133.219 340.872 134.594C341.382 135.969 342.169 137.078 343.231 137.922C344.294 138.766 345.648 139.188 347.294 139.188Z" fill="black"/>
</svg>
